<?xml version="1.0" encoding="UTF-8"?>
<svg version="1.1" xmlns="http://www.w3.org/2000/svg" width="1080" height="1080">
<path d="M0 0 C90.09 0 180.18 0 273 0 C273.04033135 100.0889646 273.04033135 100.0889646 273.04882812 141.78320312 C273.05078615 151.32755536 273.05280667 160.87190757 273.05493164 170.41625977 C273.05519539 171.61257108 273.05545914 172.80888239 273.05573088 174.04144555 C273.06008609 193.38203361 273.06797314 212.7226187 273.0771528 232.063205 C273.08648794 251.89605728 273.09205531 271.728908 273.09408849 291.56176239 C273.09546401 303.81023338 273.09981616 316.05869602 273.10791647 328.30716444 C273.11318221 336.69419234 273.11480469 345.08121589 273.11350138 353.46824532 C273.11285773 358.31483767 273.11387854 363.16141537 273.11920547 368.00800514 C273.12403857 372.43736091 273.12433924 376.86669204 273.12089889 381.29604889 C273.12047311 382.90574697 273.1217696 384.51544654 273.12488318 386.12514167 C273.1288458 388.29866581 273.12676426 390.47209882 273.12304783 392.6456213 C273.12342755 393.85730887 273.12380727 395.06899645 273.1241985 396.31740183 C273 399 273 399 272 400 C242.3 400 212.6 400 182 400 C182 293.08 182 186.16 182 76 C121.94 76 61.88 76 0 76 C0 50.92 0 25.84 0 0 Z " fill="#4A77D7" transform="translate(186,324)"/>
<path d="M0 0 C30.36 0 60.72 0 92 0 C92 132.99 92 265.98 92 403 C50.42 403 8.84 403 -34 403 C-34 378.25 -34 353.5 -34 328 C-22.78 328 -11.56 328 0 328 C0 219.76 0 111.52 0 0 Z " fill="#6C93C3" transform="translate(755,324)"/>
<path d="M0 0 C41.58 0 83.16 0 126 0 C126 24.75 126 49.5 126 75 C114.78 75 103.56 75 92 75 C92 183.24 92 291.48 92 403 C62.3 403 32.6 403 2 403 C2 294.76 2 186.52 2 75 C1.34 75 0.68 75 0 75 C0 50.25 0 25.5 0 0 Z " fill="#6C93C3" transform="translate(500,322)"/>
<path d="M0 0 C4.90669544 2.16471858 7.88342945 5.80170309 11.125 9.9375 C11.785 10.2675 12.445 10.5975 13.125 10.9375 C13.125 11.5975 13.125 12.2575 13.125 12.9375 C14.115 13.2675 15.105 13.5975 16.125 13.9375 C16.125 14.5975 16.125 15.2575 16.125 15.9375 C16.785 15.9375 17.445 15.9375 18.125 15.9375 C19.47886936 17.58752828 20.81178142 19.2549387 22.125 20.9375 C22.785 21.2675 23.445 21.5975 24.125 21.9375 C24.125 23.9175 24.125 25.8975 24.125 27.9375 C23.135 28.2675 22.145 28.5975 21.125 28.9375 C20.63 30.4225 20.63 30.4225 20.125 31.9375 C19.465 31.9375 18.805 31.9375 18.125 31.9375 C18.125 32.5975 18.125 33.2575 18.125 33.9375 C16.47497172 35.29136936 14.8075613 36.62428142 13.125 37.9375 C12.795 38.5975 12.465 39.2575 12.125 39.9375 C11.465 39.9375 10.805 39.9375 10.125 39.9375 C9.795 40.9275 9.465 41.9175 9.125 42.9375 C8.465 42.9375 7.805 42.9375 7.125 42.9375 C6.795 43.9275 6.465 44.9175 6.125 45.9375 C5.465 45.9375 4.805 45.9375 4.125 45.9375 C3.795 46.9275 3.465 47.9175 3.125 48.9375 C2.465 48.9375 1.805 48.9375 1.125 48.9375 C1.125 49.5975 1.125 50.2575 1.125 50.9375 C-1.875 50.9375 -1.875 50.9375 -3.5625 49.5625 C-4.875 47.9375 -4.875 47.9375 -4.875 45.9375 C-5.865 45.6075 -6.855 45.2775 -7.875 44.9375 C-7.875 44.2775 -7.875 43.6175 -7.875 42.9375 C-8.865 42.6075 -9.855 42.2775 -10.875 41.9375 C-10.875 41.2775 -10.875 40.6175 -10.875 39.9375 C-11.535 39.9375 -12.195 39.9375 -12.875 39.9375 C-12.45943583 35.08925132 -10.50051755 33.05713138 -6.875 29.9375 C-4.5625 28.625 -4.5625 28.625 -2.875 27.9375 C-2.875 26.2875 -2.875 24.6375 -2.875 22.9375 C-3.41125 22.710625 -3.9475 22.48375 -4.5 22.25 C-7.71659531 20.47240786 -10.24501807 18.50770962 -12.875 15.9375 C-13.4375 13.3125 -13.4375 13.3125 -12.875 10.9375 C-11.5 9.125 -11.5 9.125 -9.875 7.9375 C-9.215 7.9375 -8.555 7.9375 -7.875 7.9375 C-7.545 6.9475 -7.215 5.9575 -6.875 4.9375 C-6.215 4.9375 -5.555 4.9375 -4.875 4.9375 C-4.875 4.2775 -4.875 3.6175 -4.875 2.9375 C-2.63403614 -0.0878012 -2.63403614 -0.0878012 0 0 Z " fill="#6C92C2" transform="translate(708.875,499.0625)"/>
<path d="M0 0 C0 0.66 0 1.32 0 2 C0.99 2.33 1.98 2.66 3 3 C3 3.66 3 4.32 3 5 C3.99 5.33 4.98 5.66 6 6 C6 6.66 6 7.32 6 8 C6.66 8 7.32 8 8 8 C10.28536295 9.67007292 10.92645247 10.64145579 11.5 13.4375 C10.79280897 17.06185403 8.9355831 17.86503047 6 20 C3.61611084 22.43608793 3.61611084 22.43608793 2 25 C3.24462045 28.73386136 4.91307675 29.64805848 8 32 C9.8125 33.4375 9.8125 33.4375 11 35 C11.1875 37.6875 11.1875 37.6875 11 40 C10.34 40 9.68 40 9 40 C8.67 40.99 8.34 41.98 8 43 C7.34 43 6.68 43 6 43 C5.67 43.99 5.34 44.98 5 46 C4.34 46 3.68 46 3 46 C2.67 46.99 2.34 47.98 2 49 C1.34 49 0.68 49 0 49 C0 49.66 0 50.32 0 51 C-5.89591436 50.28148915 -9.7131582 44.80564473 -13.70117188 40.79980469 C-15.24494012 39.25506307 -16.80878844 37.732878 -18.375 36.2109375 C-19.36067359 35.23047043 -20.34509257 34.24874013 -21.328125 33.265625 C-22.2243457 32.37649414 -23.12056641 31.48736328 -24.04394531 30.57128906 C-26 28 -26 28 -26.43261719 25.29589844 C-25.78902274 21.88034415 -23.75129402 21.0009411 -21 19 C-20.01 17.7625 -20.01 17.7625 -19 16.5 C-16.90532454 13.88165568 -14.62909541 12.06064235 -12 10 C-11.67 9.34 -11.34 8.68 -11 8 C-10.34 8 -9.68 8 -9 8 C-8.67 7.01 -8.34 6.02 -8 5 C-7.34 5 -6.68 5 -6 5 C-6 4.34 -6 3.68 -6 3 C-3.89994105 0.39992701 -3.48266577 0 0 0 Z " fill="#6B93C2" transform="translate(641,499)"/>
<path d="M0 0 C2.1875 2.375 2.1875 2.375 4 5 C5.52007842 6.77277259 5.52007842 6.77277259 7 8 C7.66 8 8.32 8 9 8 C9.61875 7.195625 10.2375 6.39125 10.875 5.5625 C13.14320387 2.82731299 13.73594132 2.67532248 17 2 C17.33 1.01 17.66 0.02 18 -1 C19.65 -1 21.3 -1 23 -1 C23.495 0.485 23.495 0.485 24 2 C24.99 2.33 25.98 2.66 27 3 C27 3.66 27 4.32 27 5 C27.99 5.33 28.98 5.66 30 6 C30 6.66 30 7.32 30 8 C30.99 8.33 31.98 8.66 33 9 C32.69894935 12.61260785 32.29131912 13.74509577 29.5 16.1875 C28.675 16.785625 27.85 17.38375 27 18 C26.67 18.66 26.34 19.32 26 20 C25.34 20 24.68 20 24 20 C23.505 21.485 23.505 21.485 23 23 C22.34 23 21.68 23 21 23 C20.505 24.485 20.505 24.485 20 26 C19.34 26 18.68 26 18 26 C18 26.66 18 27.32 18 28 C16.36395804 29.37073786 14.69321939 30.70055256 13 32 C12.505 32.5775 12.01 33.155 11.5 33.75 C10 35 10 35 7.73974609 35.36791992 C3.86771247 34.84794535 2.42435854 33.08683581 -0.3359375 30.36328125 C-0.81954742 29.88682663 -1.30315735 29.41037201 -1.80142212 28.91947937 C-2.81769413 27.91097545 -3.82763189 26.89605337 -4.83154297 25.87524414 C-6.37199456 24.315543 -7.93955792 22.78742206 -9.51171875 21.25976562 C-10.49656576 20.27520893 -11.47970026 19.2889356 -12.4609375 18.30078125 C-13.35603027 17.40528564 -14.25112305 16.50979004 -15.17333984 15.5871582 C-17 13 -17 13 -16.78369141 10.16870117 C-16.52507324 9.45302979 -16.26645508 8.7373584 -16 8 C-15.34 8 -14.68 8 -14 8 C-13.67 7.01 -13.34 6.02 -13 5 C-12.34 5 -11.68 5 -11 5 C-10.67 4.01 -10.34 3.02 -10 2 C-9.34 2 -8.68 2 -8 2 C-8 1.34 -8 0.68 -8 0 C-4.99733781 -1.5013311 -3.18669322 -0.8922741 0 0 Z " fill="#6A93C2" transform="translate(666,548)"/>
<path d="M0 0 C2.60302734 1.94018555 2.60302734 1.94018555 5.3359375 4.63671875 C5.81954742 5.11317337 6.30315735 5.58962799 6.80142212 6.08052063 C7.81769413 7.08902455 8.82763189 8.10394663 9.83154297 9.12475586 C11.37199456 10.684457 12.93955792 12.21257794 14.51171875 13.74023438 C15.49656576 14.72479107 16.47970026 15.7110644 17.4609375 16.69921875 C18.35603027 17.59471436 19.25112305 18.49020996 20.17333984 19.4128418 C22 22 22 22 21.78369141 24.83129883 C21.52507324 25.54697021 21.26645508 26.2626416 21 27 C20.34 27 19.68 27 19 27 C18.505 28.485 18.505 28.485 18 30 C17.34 30 16.68 30 16 30 C15.505 31.485 15.505 31.485 15 33 C14.34 33 13.68 33 13 33 C12.67 33.99 12.34 34.98 12 36 C10.35 36 8.7 36 7 36 C6.67 35.01 6.34 34.02 6 33 C5.1028125 32.814375 5.1028125 32.814375 4.1875 32.625 C1.02188895 31.7205397 -0.03938116 29.54880449 -2 27 C-2.66 27 -3.32 27 -4 27 C-5.33895632 28.66215268 -6.67130142 30.32963607 -8 32 C-10.375 34.375 -10.375 34.375 -13 36 C-16.3125 35.75 -16.3125 35.75 -19 35 C-19 34.34 -19 33.68 -19 33 C-19.99 32.67 -20.98 32.34 -22 32 C-22 31.34 -22 30.68 -22 30 C-22.99 29.67 -23.98 29.34 -25 29 C-25 28.34 -25 27.68 -25 27 C-25.99 26.67 -26.98 26.34 -28 26 C-27.72165399 22.65984783 -27.40390082 21.34620071 -24.8125 19.125 C-23.884375 18.42375 -22.95625 17.7225 -22 17 C-20.97564498 15.85465817 -19.97673341 14.6862137 -19 13.5 C-16.57601896 10.57879208 -13.98373122 8.35557728 -11 6 C-9.65263027 4.34466005 -8.31665664 2.67987227 -7 1 C-4.36493013 -0.31753493 -2.93368557 -0.38158539 0 0 Z " fill="#6C92C3" transform="translate(677,466)"/>
<path d="M0 0 C1.32 0 2.64 0 4 0 C4 0.66 4 1.32 4 2 C4.99 2.33 5.98 2.66 7 3 C7 3.66 7 4.32 7 5 C7.99 5.33 8.98 5.66 10 6 C10 6.66 10 7.32 10 8 C10.53625 8.226875 11.0725 8.45375 11.625 8.6875 C14.84159531 10.46509214 17.37001807 12.42979038 20 15 C20.4140625 17.4296875 20.4140625 17.4296875 20 20 C18.3203125 22.01953125 18.3203125 22.01953125 16.125 23.8125 C15.40570312 24.41707031 14.68640625 25.02164063 13.9453125 25.64453125 C12 27 12 27 10 27 C9.67 27.99 9.34 28.98 9 30 C8.34 30 7.68 30 7 30 C6.773125 30.639375 6.54625 31.27875 6.3125 31.9375 C5 34 5 34 2.5625 34.9375 C0 35 0 35 -1.8125 33.6875 C-3 32 -3 32 -3 30 C-3.99 29.67 -4.98 29.34 -6 29 C-6 28.34 -6 27.68 -6 27 C-6.99 26.67 -7.98 26.34 -9 26 C-9 25.34 -9 24.68 -9 24 C-9.99 23.67 -10.98 23.34 -12 23 C-12 22.34 -12 21.68 -12 21 C-13.32 20.34 -14.64 19.68 -16 19 C-15.6875 17.0625 -15.6875 17.0625 -15 15 C-14.01 14.67 -13.02 14.34 -12 14 C-11.67 13.01 -11.34 12.02 -11 11 C-10.34 11 -9.68 11 -9 11 C-8.67 10.01 -8.34 9.02 -8 8 C-7.34 8 -6.68 8 -6 8 C-5.67 7.01 -5.34 6.02 -5 5 C-4.34 5 -3.68 5 -3 5 C-2.67 4.01 -2.34 3.02 -2 2 C-1.34 2 -0.68 2 0 2 C0 1.34 0 0.68 0 0 Z " fill="#6B93C2" transform="translate(672,507)"/>
</svg>
