<svg version="1.1" xmlns:xlink="http://www.w3.org/1999/xlink" xmlns="http://www.w3.org/2000/svg" xmlns:svg="http://www.w3.org/2000/svg" viewBox="-250.62 -421.04 1920 1080">   <g transform="translate(0,7.5756695e-4)">     <g data-name="P" transform="translate(-250.6222,-421.03699)">       <clipPath id="cp0">         <path transform="matrix(1,0,0,-1,0,1080)" d="m 250.6222,366.3527 h 1394.2 v 112.5 h -1394.2 z"/>       </clipPath>       <g clip-path="url(#cp0)" style="display:inline">         <symbol id="font_1_1" style="display:inline">           <path d="M 0.208,0 C 0.1853334,0 0.163,5.000001e-4 0.141,0.0015 0.119,0.00216667 0.09650001,0.0035 0.07350001,0.0055 0.05050001,0.00716667 0.026,0.00966667 0,0.013 v 0.71650008 c 0.02333333,0.005333 0.048,0.009667 0.074,0.013 0.026,0.003333 0.052,0.005833 0.07800001,0.0075 0.0263333,0.001667 0.0513333,0.0025 0.075,0.0025 0.13533334,0 0.238,-0.0311668 0.308,-0.0935 C 0.6053333,0.5966667 0.6405,0.5021667 0.6405,0.3755 0.6405,0.29016669 0.62450006,0.21966668 0.59250006,0.164 0.5605001,0.10866668 0.5123334,0.0675 0.448,0.0405 0.38400004,0.0135 0.30400003,0 0.208,0 m 0.0175,0.07200001 c 0.073,0 0.13366668,0.01083333 0.18200002,0.0325 0.0483333,0.0216667 0.0843333,0.0548333 0.10799996,0.0995 0.024,0.045 0.036,0.10233333 0.036,0.17200002 0,0.0693333 -0.012,0.12650005 -0.036,0.17150007 -0.024,0.045 -0.06,0.0783333 -0.10799996,0.1 -0.048,0.022 -0.10800001,0.033 -0.18000002,0.033 -0.0223333,0 -0.0451667,-9.9999e-4 -0.0685,-0.003 -0.0233333,-0.002 -0.0475,-0.005 -0.0725,-0.009 V 0.08100001 c 0.019,-0.003 0.03949999,-0.0053333 0.06149999,-0.007 0.022,-0.0013333 0.0478334,-0.002 0.0775,-0.002 z"/>         </symbol>         <symbol id="font_2_6">           <path d="M 0,0 V 0.595 H 0.08600001 V 0 Z"/>         </symbol>         <symbol id="font_2_5">           <path d="M 0.36800004,0 C 0.28666667,0 0.21866668,0.01133333 0.164,0.034 0.10933334,0.05666667 0.06833334,0.09033334 0.041,0.135 0.01366667,0.17966669 0,0.23516667 0,0.3015 0,0.3701667 0.0145,0.42716668 0.0435,0.4725 0.07283334,0.5178334 0.114,0.5516668 0.167,0.57400009 c 0.053,0.0226667 0.1155,0.034 0.18750004,0.034 0.0286667,0 0.0568333,-0.001667 0.0845,-0.005 0.0276667,-0.003333 0.0533333,-0.007833 0.077,-0.0135 v -0.0705 c -0.0280001,0.007 -0.0546667,0.012 -0.08,0.015 -0.0253333,0.003 -0.0506666,0.0045 -0.076,0.0045 -0.0556666,0 -0.10366664,-0.008333 -0.144,-0.025 C 0.17566668,0.49716673 0.1445,0.4715 0.1225,0.4365 0.10083334,0.40183334 0.09,0.35683335 0.09,0.3015 0.09,0.2501667 0.1,0.2071667 0.12000001,0.17250002 c 0.0203333,-0.0346667 0.0506667,-0.0606667 0.091,-0.07800001 0.0403334,-0.01733334 0.0908334,-0.026 0.15150004,-0.026 0.0223333,0 0.0455,8.3333e-4 0.0695,0.0025 0.0239999,0.002 0.0455,0.0048333 0.0645,0.0085 L 0.4535,0.04 V 0.2945 H 0.535 V 0.0135 C 0.507,0.00916667 0.4786667,0.00583333 0.45000003,0.0035 0.4216667,0.00116667 0.39433337,0 0.36800004,0 Z"/>         </symbol>         <symbol id="font_2_d">           <path d="M 0.23400001,0 V 0.52750006 H 0 V 0.595 H 0.554 V 0.52750006 H 0.32 V 0 Z"/>         </symbol>         <symbol id="font_2_1">           <path d="m 0,0 0.25300003,0.595 h 0.1205 L 0.6275,0 H 0.541 L 0.307,0.56100007 H 0.3195 L 0.0855,0 H 0 M 0.1455,0.185 0.167,0.25 H 0.46000005 L 0.4805,0.185 Z"/>         </symbol>         <symbol id="font_2_7">           <path d="M 0,0 V 0.595 H 0.08600001 V 0.0675 H 0.4365 V 0 Z"/>         </symbol>         <use xlink:href="#font_1_1" transform="matrix(60,0,0,-60,275.6922,682.0272)" fill="#6d94c4" style="display:inline"/>         <use xlink:href="#font_2_6" transform="matrix(60,0,0,-60,337.5522,681.6972)" fill="#6d94c4"/>         <use xlink:href="#font_2_5" transform="matrix(60,0,0,-60,365.4822,682.0272)" fill="#6d94c4"/>         <use xlink:href="#font_2_6" transform="matrix(60,0,0,-60,422.8122,681.6972)" fill="#6d94c4"/>         <use xlink:href="#font_2_d" transform="matrix(60,0,0,-60,448.28224,681.6972)" fill="#6d94c4"/>         <use xlink:href="#font_2_1" transform="matrix(60,0,0,-60,491.6322,681.6972)" fill="#6d94c4"/>         <use xlink:href="#font_2_7" transform="matrix(60,0,0,-60,550.19229,681.6972)" fill="#6d94c4"/>         <symbol id="font_1_6">           <path d="M -2147483500,-2147483500 Z"/>         </symbol>         <symbol id="font_1_5">           <path d="M 0.0605,0 C 0.04183333,0 0.027,0.005 0.016,0.015 0.00533333,0.02533334 0,0.039 0,0.056 c 0,0.01766667 0.00533333,0.03150001 0.016,0.04150001 0.011,0.01033332 0.02583333,0.0155 0.0445,0.0155 0.01866667,0 0.03333334,-0.005167 0.044,-0.0155 C 0.1151667,0.08716667 0.1205,0.07333333 0.1205,0.056 0.1205,0.03933333 0.115,0.02583333 0.104,0.0155 0.09333334,0.00516667 0.07883334,0 0.0605,0 m 0,0.44250003 c -0.01866667,0 -0.0335,0.005 -0.0445,0.015 -0.01066667,0.0103333 -0.016,0.024 -0.016,0.041 0,0.0176667 0.00533333,0.0315 0.016,0.0415 0.011,0.0103333 0.02583333,0.0155001 0.0445,0.0155001 0.01866667,0 0.03333334,-0.005167 0.044,-0.0155001 0.0106667,-0.0103333 0.016,-0.0241667 0.016,-0.0415 0,-0.0166667 -0.0055,-0.0301667 -0.0165,-0.0405 -0.01066667,-0.0103334 -0.02516667,-0.0155 -0.0435,-0.0155 z"/>         </symbol>         <symbol id="font_1_3">           <path d="M 0.22350002,0 C 0.18783336,0 0.15183334,0.00283333 0.1155,0.0085 0.0795,0.01416667 0.045,0.02233333 0.012,0.033 V 0.1055 C 0.036,0.0975 0.06033334,0.091 0.08500001,0.08600001 0.11000001,0.08100001 0.13433333,0.07733331 0.158,0.075 0.1816667,0.0726667 0.2038333,0.0715 0.2245,0.0715 c 0.07,0 0.12116669,0.01166667 0.15350003,0.035 0.0326667,0.0236667 0.049,0.0575 0.049,0.1015 0,0.0376667 -0.0126667,0.066 -0.038,0.085 C 0.364,0.31233336 0.3215,0.32783333 0.2615,0.3395 L 0.2165,0.348 C 0.1408333,0.3626667 0.08583333,0.3865 0.0515,0.4195 0.01716667,0.45283333 0,0.49650003 0,0.55050006 c 0,0.0646666 0.02416667,0.11550003 0.07250001,0.15250003 0.04833333,0.0373333 0.12083334,0.056 0.21750002,0.056 0.0343333,0 0.0675,-0.002333 0.0995,-0.007 0.0323333,-0.004333 0.0623333,-0.0106667 0.09,-0.019 v -0.073 c -0.0293333,0.009333 -0.0601666,0.0161666 -0.0925,0.0205 -0.032,0.004667 -0.0641667,0.007 -0.0965,0.007 -0.047,0 -0.0855,-0.005167 -0.11550001,-0.0155 -0.0296667,-0.0103334 -0.0518333,-0.0255 -0.0665,-0.0455 -0.01433334,-0.02 -0.02150002,-0.0441667 -0.02150001,-0.0725 -1e-8,-0.0363334 0.011,-0.0645001 0.03300001,-0.0845001 0.0223333,-0.0196666 0.0615,-0.0351666 0.1175,-0.0465 l 0.0455,-0.0085 c 0.0553333,-0.011 0.0998333,-0.0255 0.13350001,-0.0435 0.034,-0.0176667 0.0586667,-0.0396667 0.074,-0.066 0.0153334,-0.0263333 0.023,-0.0573333 0.023,-0.093 0,-0.045 -0.0115,-0.0833333 -0.0345,-0.11500001 -0.0226667,-0.03133333 -0.0556667,-0.05533333 -0.099,-0.072 C 0.337,0.00833333 0.28483335,0 0.22350002,0 Z"/>         </symbol>         <use xlink:href="#font_1_5" transform="matrix(60,0,0,-60,625.4022,682.0872)" fill="#6d94c4"/>         <use xlink:href="#font_1_3" transform="matrix(60,0,0,-60,683.75228,682.2672)" fill="#6d94c4"/>         <symbol id="font_2_4">           <path d="M 0,0 V 0.595 H 0.45000006 V 0.531 H 0.08400001 V 0.064 H 0.45500005 V 0 H 0 M 0.043,0.2725 V 0.337 H 0.407 V 0.2725 Z"/>         </symbol>         <symbol id="font_2_3">           <path d="M 0.33150003,0 C 0.26383335,0 0.20516669,0.01016667 0.15550001,0.0305 0.10616666,0.05116667 0.06783333,0.08383334 0.0405,0.12850002 0.0135,0.17350002 0,0.23200001 0,0.30400003 0,0.3726667 0.01333334,0.4295 0.04,0.4745 0.067,0.5198333 0.10566666,0.55366668 0.156,0.57600006 0.20666667,0.59866669 0.2675,0.61 0.33850003,0.61 c 0.0286667,0 0.0556667,-0.001667 0.081,-0.005 0.0256667,-0.003 0.0511667,-0.0075 0.0765,-0.0134999 V 0.521 c -0.024,0.005667 -0.0488333,0.0101667 -0.0745,0.0135 -0.0253333,0.003333 -0.0515,0.005 -0.0785,0.005 -0.055,0 -0.10133335,-0.008167 -0.13900002,-0.0244999 -0.0373333,-0.0163334 -0.0656667,-0.0418334 -0.085,-0.0765 C 0.1,0.40383337 0.0905,0.35933338 0.0905,0.305 0.0905,0.248 0.1001667,0.20216668 0.1195,0.16750002 0.1391667,0.13316662 0.1673333,0.10833332 0.204,0.093 0.2406667,0.078 0.2846667,0.0705 0.33600003,0.0705 c 0.028,0 0.0546667,0.0018333 0.08,0.0055 0.0253333,0.0036667 0.052,0.0095 0.08,0.01749999 V 0.023 C 0.47066669,0.01533333 0.44433335,0.00966667 0.41700004,0.006 0.38966669,0.002 0.3611667,0 0.33150003,0 Z"/>         </symbol>         <symbol id="font_2_e">           <path d="M 0.2685,0 C 0.20683332,0 0.15616668,0.00916667 0.11650001,0.0275 0.07683333,0.04616667 0.0475,0.07416666 0.0285,0.1115 0.0095,0.14883335 0,0.19583334 0,0.2525 v 0.35 H 0.08600001 V 0.24650002 c -1e-8,-0.0616667 0.015,-0.10666667 0.045,-0.13500002 0.03,-0.028 0.0758333,-0.042 0.13749999,-0.042 0.062,0 0.10783337,0.014 0.13750003,0.042 0.03,0.0283333 0.045,0.0733334 0.045,0.13500002 V 0.6025 h 0.084 v -0.35 C 0.535,0.19583334 0.5255,0.14883335 0.5065,0.1115 0.48783336,0.07416666 0.45866669,0.04616667 0.41900004,0.0275 0.3796667,0.00916667 0.3295,0 0.2685,0 Z"/>         </symbol>         <symbol id="font_2_b">           <path d="m 0,0 v 0.58150008 c 0.027,0.005333 0.05733334,0.01 0.09100001,0.014 0.03366666,0.004 0.06849999,0.006 0.10449999,0.006 0.0923333,0 0.16083336,-0.0143334 0.20550003,-0.043 0.045,-0.0283334 0.0675,-0.074 0.0675,-0.13700004 0,-0.04 -0.0106666,-0.0735 -0.032,-0.10050004 -0.021,-0.0266667 -0.0525,-0.0468333 -0.0945,-0.0605 C 0.30033343,0.2468333 0.24883333,0.24 0.18750005,0.24 c -0.019,0 -0.0365,3.3333e-4 -0.0525,0.001 -0.016,6.6667e-4 -0.0328333,0.001833 -0.0505,0.0035 V 0 H 0 M 0.41900004,0 0.18050002,0.28050003 h 0.097 L 0.51800009,0 H 0.41900004 M 0.1905,0.30150003 c 0.07,0 0.12033337,0.009833 0.15100005,0.0295 0.0306667,0.0196666 0.046,0.0493333 0.046,0.089 0,0.0446667 -0.0148334,0.0758333 -0.0445001,0.0935 -0.0293333,0.0176667 -0.0764999,0.0265 -0.14149993,0.0265 -0.024,0 -0.0451667,-9.9994e-4 -0.0635,-0.003 -0.018,-0.001667 -0.0358333,-0.004 -0.05350001,-0.007 v -0.224 c 0.01966667,-0.001333 0.03650002,-0.0025 0.0505,-0.0035 0.0143333,-6.6663e-4 0.0328333,-9.9997e-4 0.0555,-0.001 z"/>         </symbol>         <use xlink:href="#font_2_4" transform="matrix(60,0,0,-60,737.93228,681.6972)" fill="#6d94c4"/>         <use xlink:href="#font_2_3" transform="matrix(60,0,0,-60,784.5822,682.1472)" fill="#6d94c4"/>         <use xlink:href="#font_2_e" transform="matrix(60,0,0,-60,835.6422,682.1472)" fill="#6d94c4"/>         <use xlink:href="#font_2_b" transform="matrix(60,0,0,-60,893.0922,681.6972)" fill="#6d94c4"/>         <use xlink:href="#font_2_4" transform="matrix(60,0,0,-60,946.73226,681.6972)" fill="#6d94c4"/>         <symbol id="font_1_2">           <path d="m 0,0 v 0.72400006 c 0.02066667,0.004333 0.04266667,0.008333 0.066,0.012 0.02333333,0.003667 0.04816668,0.0065 0.07450001,0.0085 0.0263333,0.002333 0.0541667,0.0035 0.0835,0.0035 0.106,-10e-9 0.18483336,-0.0173333 0.2365,-0.0519999 C 0.5121667,0.6616667 0.53800007,0.6056667 0.53800007,0.528 c 0,-0.0496666 -0.0123334,-0.091 -0.037,-0.124 C 0.47666667,0.371 0.44016667,0.3461667 0.39150004,0.3295 0.34316674,0.3128333 0.28316669,0.3045 0.21150002,0.3045 c -0.0236667,0 -0.0453334,5.0005e-4 -0.065,0.0015 -0.0193333,0.001333 -0.0398333,0.002833 -0.06149999,0.0045 V 0 H 0 M 0.49450005,0 0.20900002,0.35050003 H 0.3075 L 0.5945,0 h -0.1 M 0.21450001,0.37150003 c 0.0856667,0 0.14733333,0.0128334 0.18499999,0.0385 0.0376667,0.0256667 0.0565,0.0645 0.0565,0.11650003 -4e-8,0.0383333 -0.008,0.0688333 -0.024,0.0915 -0.0156667,0.0226666 -0.0403334,0.0388333 -0.0740001,0.0485 C 0.3246667,0.6765 0.2815,0.6815 0.22850001,0.6815 c -0.0303333,0 -0.0565,-0.001167 -0.0785,-0.0035 C 0.12833341,0.675667 0.10666671,0.6725 0.08500002,0.6685 V 0.37800003 c 0.01566666,-0.001667 0.02983332,-0.003 0.0425,-0.004 0.0126667,-6.6663e-4 0.0258333,-0.001333 0.0395,-0.002 0.0136667,-3.3332e-4 0.0295,-4.9997e-4 0.0475,-5e-4 z"/>         </symbol>         <use xlink:href="#font_1_6" transform="matrix(60,0,0,-60,1.2884901e11,-1.2884901e11)" fill="#6d94c4"/>         <use xlink:href="#font_1_5" transform="matrix(60,0,0,-60,1025.4822,682.0872)" fill="#6d94c4"/>         <use xlink:href="#font_1_6" transform="matrix(60,0,0,-60,1.2884901e11,-1.2884901e11)" fill="#6d94c4"/>         <use xlink:href="#font_1_2" transform="matrix(60,0,0,-60,1086.8922,681.6972)" fill="#6d94c4"/>         <symbol id="font_2_c">           <path d="m 0.19500001,0 c -0.031,0 -0.0623334,0.00233333 -0.094,0.007 C 0.06933334,0.01133333 0.03933333,0.0175 0.011,0.0255 V 0.09500001 C 0.032,0.08866667 0.05333333,0.08333334 0.075,0.079 0.097,0.075 0.11816666,0.072 0.1385,0.07 0.1588333,0.0683333 0.1775,0.0675 0.1945,0.0675 c 0.0403334,0 0.073,0.0038333 0.098,0.0115 0.025,0.008 0.0431667,0.01950001 0.0545,0.03450001 0.0116667,0.0153333 0.0175,0.0338333 0.0175,0.0555 0,0.0186667 -0.004167,0.0341667 -0.0125,0.0465 -0.008,0.0123333 -0.022,0.0225 -0.042,0.0305 -0.02,0.008333 -0.0475,0.0156667 -0.0825,0.022 l -0.034,0.006 C 0.12283334,0.28666667 0.07283334,0.30633334 0.0435,0.333 0.0145,0.36 0,0.3956667 0,0.44000004 c 0,0.033 0.00883333,0.0621667 0.0265,0.0875 0.018,0.0256667 0.04583334,0.0458333 0.0835,0.0605 0.038,0.0146667 0.0865,0.022 0.14550003,0.022 0.0286667,0 0.0568334,-0.001833 0.0845,-0.0055 0.0276667,-0.003333 0.0535,-0.008167 0.0775,-0.0144999 V 0.521 c -0.0266666,0.007333 -0.0536667,0.0128333 -0.081,0.0165 -0.0273333,0.003667 -0.0548333,0.0055 -0.0825,0.0055 -0.041,0 -0.074,-0.004 -0.099,-0.0120001 -0.025,-0.008 -0.0431667,-0.0195 -0.0545,-0.0345 -0.01133334,-0.015 -0.017,-0.0326667 -0.017,-0.053 0,-0.028 0.009,-0.0496666 0.02700001,-0.065 0.018,-0.015 0.052,-0.027 0.10200001,-0.036 L 0.2465,0.337 c 0.05,-0.009 0.0895001,-0.0206667 0.11850005,-0.035 0.0293333,-0.014 0.0503333,-0.0316667 0.063,-0.053 0.013,-0.0213333 0.0195,-0.0468333 0.0195,-0.0765 0,-0.0343333 -0.009333,-0.0643333 -0.028,-0.09000002 C 0.40083338,0.05683334 0.37283338,0.03666667 0.33550004,0.022 0.29816673,0.00733333 0.25133337,0 0.19500001,0 Z"/>         </symbol>         <symbol id="font_2_a">           <path d="M 0,0 V 0.5835 C 0.03133334,0.5895 0.06200001,0.5940001 0.09200001,0.597 0.12200001,0.6 0.15433334,0.6015 0.189,0.6015 0.2806667,0.6015 0.35016669,0.5851666 0.39750005,0.5524999 0.4451667,0.5198334 0.469,0.46800003 0.46900005,0.397 0.469,0.33 0.44583337,0.27883337 0.3995,0.24350001 0.3531667,0.20816668 0.28033338,0.1905 0.18100001,0.1905 c -0.0163333,0 -0.0326667,3.3333e-4 -0.049,0.001 -0.016,9.9999e-4 -0.0313333,0.002 -0.04599999,0.003 V 0 H 0 m 0.1815,0.252 c 0.0726667,0 0.12466669,0.0118334 0.15600005,0.0355 0.0313333,0.0236666 0.047,0.06 0.047,0.109 0,0.05 -0.0156666,0.0863333 -0.047,0.10899997 C 0.30616669,0.5285 0.25883333,0.54 0.1955,0.54 0.1745,0.54 0.155,0.5391667 0.137,0.5375 0.1193333,0.536167 0.1023333,0.534 0.086,0.531 V 0.25800003 c 0.01566667,-0.001667 0.03083334,-0.003167 0.0455,-0.0045 0.015,-9.9996e-4 0.0316667,-0.0015 0.05,-0.0015 z"/>         </symbol>         <symbol id="font_2_9">           <path d="M 0.30600003,0 C 0.24466668,0 0.191,0.01116667 0.145,0.0335 0.09933332,0.05583334 0.06366667,0.0895 0.038,0.1345 0.01266667,0.17950003 0,0.23616667 0,0.3045 0,0.37283335 0.01283333,0.42966668 0.0385,0.47500003 0.06416666,0.52033337 0.1,0.55416676 0.146,0.5765 0.19200002,0.5988333 0.24533336,0.61 0.30600003,0.61 0.3676667,0.61 0.42150007,0.5988333 0.46750007,0.5765 0.51350006,0.55416676 0.5491667,0.52033337 0.5745,0.47500003 0.5998333,0.42966668 0.6125,0.37283335 0.6125,0.3045 0.6125,0.2365 0.5996667,0.17983334 0.574,0.1345 0.54866668,0.0895 0.51283338,0.05583334 0.4665,0.0335 0.42050005,0.01116667 0.367,0 0.30600003,0 m 0,0.068 c 0.044,0 0.0823333,0.008 0.11500001,0.02400001 0.033,0.01633333 0.0585,0.04183333 0.0765,0.07649999 0.0183333,0.0346667 0.0275,0.0795 0.0275,0.1345 0,0.0563334 -0.009167,0.102 -0.0275,0.13700004 -0.0183333,0.0353333 -0.0438333,0.0611667 -0.0765,0.0775 -0.0326667,0.0163333 -0.071,0.0245 -0.11500001,0.0245 -0.0436667,0 -0.0818333,-0.008167 -0.11450002,-0.0244999 -0.0326667,-0.016 -0.058,-0.0413334 -0.076,-0.0760001 C 0.09750001,0.4068333 0.0885,0.362 0.0885,0.307 c 0,-0.0563333 0.0088334,-0.10216667 0.02650001,-0.1375 0.018,-0.035 0.0433334,-0.0606667 0.076,-0.077 C 0.22366667,0.07616667 0.262,0.068 0.30600003,0.068 Z"/>         </symbol>         <symbol id="font_2_8">           <path d="M 0,0 V 0.595 H 0.08650001 L 0.48850007,0.093 h -0.016 v 0.502 h 0.0805 V 0 h -0.087 L 0.0635,0.50200006 H 0.08050001 V 0 Z"/>         </symbol>         <symbol id="font_2_2">           <path d="M 0.182,0 C 0.162,0 0.142,3.333334e-4 0.122,0.001 0.1023333,0.00166667 0.08233333,0.00283333 0.062,0.0045 0.04166667,0.00616667 0.021,0.00833333 0,0.011 v 0.5760001 c 0.02066667,0.004333 0.04233334,0.008 0.065,0.011 0.02266667,0.003 0.04550001,0.005167 0.06850001,0.0065 0.0233333,0.001667 0.0461667,0.0025 0.0685,0.0025 0.0933334,0 0.16050005,-0.0138334 0.20150003,-0.0415001 0.0413333,-0.0273333 0.062,-0.0674999 0.062,-0.12049997 -3e-8,-0.023 -0.004833,-0.044 -0.0145,-0.063 -0.009333,-0.019 -0.0238333,-0.0348333 -0.0435,-0.0475 -0.0196667,-0.0126666 -0.0445,-0.021 -0.0745,-0.025 l 0.002,0.0065 c 0.0316666,-0.003667 0.0585,-0.0116667 0.0805,-0.024 0.0223333,-0.012 0.0393333,-0.0281667 0.051,-0.0485 0.0116667,-0.0203333 0.0175,-0.0448333 0.0175,-0.0735 3e-8,-0.036 -0.009667,-0.0666667 -0.029,-0.09200001 C 0.4356667,0.053 0.4038334,0.03366667 0.3595,0.02 0.3155,0.00666667 0.25633333,0 0.182,0 m 0.015,0.0595 c 0.0533333,0 0.095,0.0043333 0.12500003,0.01300001 0.03,0.0086667 0.051,0.0215 0.063,0.0385 0.0123334,0.017 0.0185,0.0378333 0.0185,0.0625 -3e-8,0.0356667 -0.0126666,0.0625 -0.038,0.0805 -0.025,0.018 -0.067,0.027 -0.12600004,0.027 H 0.0705 V 0.3415 H 0.23 c 0.057,0 0.097,0.008833 0.12000003,0.0265 0.023,0.018 0.0345,0.0426667 0.0345,0.074 0,0.0373334 -0.0135,0.0641667 -0.0405,0.0805001 -0.027,0.0166667 -0.0720001,0.025 -0.13500005,0.025 -0.023,0 -0.0455,-8.334e-4 -0.0675,-0.0025 -0.0216667,-0.001667 -0.0413333,-0.004167 -0.059,-0.0075 V 0.06650001 c 0.01833333,-0.0023333 0.03633332,-0.0041667 0.05399999,-0.0055 0.018,-0.001 0.0381667,-0.0015 0.0605,-0.0015 z"/>         </symbol>         <use xlink:href="#font_2_4" transform="matrix(60,0,0,-60,1143.7123,681.6972)" fill="#6d94c4"/>         <use xlink:href="#font_2_c" transform="matrix(60,0,0,-60,1190.6921,682.1472)" fill="#6d94c4"/>         <use xlink:href="#font_2_a" transform="matrix(60,0,0,-60,1240.0122,681.6972)" fill="#6d94c4"/>         <use xlink:href="#font_2_9" transform="matrix(60,0,0,-60,1288.0421,682.1472)" fill="#6d94c4"/>         <use xlink:href="#font_2_8" transform="matrix(60,0,0,-60,1347.5321,681.6972)" fill="#6d94c4"/>         <use xlink:href="#font_2_c" transform="matrix(60,0,0,-60,1403.212,682.1472)" fill="#6d94c4"/>         <use xlink:href="#font_2_6" transform="matrix(60,0,0,-60,1452.532,681.6972)" fill="#6d94c4"/>         <use xlink:href="#font_2_2" transform="matrix(60,0,0,-60,1483.252,682.0272)" fill="#6d94c4"/>         <use xlink:href="#font_2_7" transform="matrix(60,0,0,-60,1534.492,681.6972)" fill="#6d94c4"/>         <use xlink:href="#font_2_4" transform="matrix(60,0,0,-60,1580.992,681.6972)" fill="#6d94c4"/>       </g>       <clipPath id="cp3">         <path transform="matrix(1,0,0,-1,0,1080)" d="m 220.4912,493.5848 h 1479.018 V 735.20986 H 220.4912 Z"/>       </clipPath>       <g clip-path="url(#cp3)">         <symbol id="font_4_3" style="display:inline">           <path d="M 0,0 V 0.74 H 0.16250003 V 0 Z"/>         </symbol>         <symbol id="font_4_7" style="display:inline">           <path d="M 0.2335,0 V 0.605 H 0 V 0.74 H 0.62950006 V 0.605 H 0.39650003 V 0 Z"/>         </symbol>         <symbol id="font_4_2">           <path d="M 0.2085,0 C 0.18816667,0 0.16583334,6.666668e-4 0.1415,0.002 0.11750001,0.003 0.09316667,0.00466667 0.06850001,0.007 0.04416667,0.009 0.02133334,0.0115 0,0.0145 V 0.732 C 0.023,0.737 0.04766667,0.741333 0.07400001,0.745 0.10033334,0.749 0.12733335,0.752 0.155,0.754 c 0.028,0.002333 0.0555,0.0035 0.0825,0.0035 0.0733334,0 0.13316669,-0.007667 0.17950003,-0.023 0.0466666,-0.015 0.081,-0.0378333 0.10300003,-0.0685 0.022,-0.0303333 0.033,-0.0685 0.033,-0.1145 0,-0.0273333 -0.005333,-0.0525 -0.0160001,-0.0754999 -0.0103333,-0.0226667 -0.0255,-0.0418333 -0.0455,-0.0575 -0.02,-0.0156667 -0.0443333,-0.0263334 -0.073,-0.032 L 0.419,0.3930001 C 0.466,0.3863331 0.5033334,0.3681668 0.53099996,0.3385001 0.559,0.3091667 0.573,0.26833336 0.573,0.216 0.573,0.1816667 0.5665,0.151 0.5535,0.124 0.5405,0.09733334 0.5196667,0.07466667 0.491,0.056 0.46233336,0.03766667 0.42466668,0.02366667 0.37800003,0.014 0.33166669,0.00466667 0.27516667,0 0.2085,0 M 0.252,0.11850001 c 0.0433334,10e-9 0.0773334,0.003833 0.102,0.0115 0.025,0.007667 0.0426667,0.0191667 0.053,0.0345 0.0106667,0.0153333 0.016,0.0348333 0.016,0.0585 0,0.0356667 -0.0111666,0.0616667 -0.0335,0.078 -0.022,0.0166666 -0.0583334,0.025 -0.10900003,0.025 h -0.139 V 0.4475 H 0.265 c 0.033,0 0.0593333,0.0035 0.079,0.0105 0.02,0.007333 0.0343333,0.018 0.043,0.032 0.009,0.0139999 0.0134999,0.0316666 0.0135,0.053 -2e-8,0.0336667 -0.0106667,0.058 -0.032,0.073 C 0.3471667,0.6313334 0.3103333,0.639 0.258,0.639 0.239,0.639 0.2215,0.63816669 0.2055,0.6365 0.1895,0.635167 0.1738334,0.633167 0.1585,0.6305 V 0.12300001 c 0.017,-0.001667 0.0328333,-0.002833 0.0475,-0.0035 0.0146667,-6.6667e-4 0.03,-9.9999e-4 0.046,-0.001 z"/>         </symbol>         <symbol id="font_4_9">           <path d="M -2147483500,-2147483500 Z"/>         </symbol>         <symbol id="font_4_5" style="display:inline">           <path d="M 0,0 V 0.7235 C 0.02233333,0.7285 0.04616667,0.732833 0.07150001,0.7365 0.09683335,0.7405 0.123,0.7435 0.15,0.7455 0.177,0.747833 0.2041667,0.749 0.2315,0.749 c 0.10633333,0 0.18633334,-0.0193333 0.24000005,-0.0579999 0.0536666,-0.0383333 0.0805,-0.0983334 0.0805,-0.18000001 0,-0.0526667 -0.0126667,-0.0968334 -0.0380001,-0.13250006 -0.0253333,-0.0353333 -0.0615,-0.062 -0.10849997,-0.08 -0.0466667,-0.018 -0.10250003,-0.027 -0.16750003,-0.027 -0.0146667,0 -0.0281667,1.6666e-4 -0.0405,4.9997e-4 -0.0123333,6.6667e-4 -0.025,0.001333 -0.038,0.002 V 0 H 0 M 0.43550004,0 0.19749999,0.342 H 0.37150003 L 0.61300006,0 H 0.43550004 M 0.241,0.3925 c 0.0536667,0 0.0935,0.009333 0.1195,0.028 0.026,0.0186667 0.039,0.0488333 0.039,0.0905001 C 0.3995,0.5383334 0.394,0.5606668 0.383,0.578 0.372,0.5956667 0.3553333,0.6086667 0.333,0.6170001 c -0.0223333,0.008333 -0.0506667,0.0125 -0.085,0.0125 -0.017,0 -0.0326666,-6.6668e-4 -0.047,-0.002 -0.0143333,-0.001333 -0.0281667,-0.003333 -0.0415,-0.006 V 0.39650003 c 0.009667,-6.6668e-4 0.0186667,-0.0015 0.027,-0.0025 0.008667,-6.6667e-4 0.0173333,-0.001167 0.026,-0.0015 0.009,0 0.0185,0 0.0285,-3e-8 z"/>         </symbol>         <symbol id="font_4_8">           <path d="M 0.31200005,0 C 0.24000001,0 0.18100001,0.0115 0.135,0.0345 0.08900001,0.05750001 0.055,0.09233334 0.033,0.139 0.011,0.18599999 0,0.245 0,0.316 V 0.74950006 H 0.16200002 V 0.3 c 0,-0.0586666 0.0125,-0.10116665 0.0375,-0.1275 0.025,-0.0263333 0.0625,-0.0395 0.11250004,-0.0395 0.05,0 0.0873333,0.0131667 0.11199998,0.0395 0.025,0.0263334 0.0375,0.0688334 0.0375,0.1275 V 0.74950006 H 0.6205 V 0.316 C 0.6205,0.245 0.6096667,0.18599999 0.58800008,0.139 0.56633338,0.09233334 0.5326667,0.05750001 0.48700006,0.0345 0.44133339,0.0115 0.38300003,0 0.31200005,0 Z"/>         </symbol>         <symbol id="font_4_6" style="display:inline">           <path d="M 0.224,0 C 0.18833335,0 0.15250002,0.00283333 0.11650001,0.0085 0.08083334,0.01383333 0.04783334,0.0215 0.0175,0.03150001 v 0.132 c 0.021,-0.007 0.04333334,-0.013 0.067,-0.018 0.02366667,-0.004667 0.04733333,-0.008333 0.07100001,-0.011 0.024,-0.002667 0.0466667,-0.004 0.068,-0.004 0.0496667,0 0.0848334,0.0075 0.10550002,0.0225 0.0206667,0.0153333 0.031,0.0366667 0.031,0.064 0,0.023 -0.007667,0.041 -0.023,0.054 -0.015,0.013 -0.0431666,0.0248334 -0.0845,0.0355 L 0.1965,0.321 C 0.13183333,0.33733336 0.08283334,0.3626667 0.0495,0.397 0.0165,0.4316667 0,0.4773334 0,0.53400006 0,0.6046667 0.0255,0.6598334 0.0765,0.6995001 c 0.05133334,0.0396667 0.1285,0.0595 0.2315,0.0595 0.0333334,0 0.065,-0.002 0.095,-0.006 0.0303333,-0.003667 0.0571667,-0.008833 0.0805,-0.0155 V 0.60550007 c -0.0236667,0.007333 -0.05,0.013 -0.079,0.017 -0.029,0.004 -0.0581666,0.006 -0.0875,0.006 -0.0386667,0 -0.0693333,-0.003667 -0.092,-0.011 -0.0226667,-0.007 -0.039,-0.017 -0.049,-0.03 -0.009667,-0.013 -0.0145,-0.028 -0.0145,-0.045 0,-0.0216666 0.006667,-0.0386667 0.02,-0.0510001 0.0133333,-0.0123334 0.0383333,-0.0235 0.075,-0.0335 L 0.312,0.4435 C 0.36,0.43183337 0.3995,0.41633336 0.43050004,0.397 c 0.031,-0.019 0.0538333,-0.0425 0.0685,-0.0705 0.015,-0.0276667 0.0225,-0.0605 0.0225,-0.0985 0,-0.0473333 -0.0118333,-0.0881667 -0.0355,-0.1225 C 0.46266667,0.0715 0.42883335,0.04533334 0.38450004,0.027 0.3401667,0.009 0.28666667,0 0.224,0 Z"/>         </symbol>         <symbol id="font_4_4" style="display:inline">           <path d="M 0,0 V 0.74 H 0.16250003 V 0.135 H 0.5025 V 0 Z"/>         </symbol>         <symbol id="font_4_1" style="display:inline">           <path d="M 0,0 0.23900001,0.74 H 0.47550003 L 0.7145,0 h -0.16 L 0.34750004,0.669 h 0.017 L 0.158,0 H 0 M 0.16600001,0.1975 0.201,0.32700003 H 0.513 L 0.5475,0.1975 Z"/>         </symbol>         <use xlink:href="#font_4_3" transform="matrix(129,0,0,-129,269.8822,517.7225)" fill="#4b78d8"/>         <use xlink:href="#font_4_3" transform="matrix(129,0,0,-129,337.6717,517.7225)" fill="#4b78d8"/>         <use xlink:href="#font_4_7" transform="matrix(129,0,0,-129,397.7212,517.7225)" fill="#4b78d8"/>         <use xlink:href="#font_4_2" transform="matrix(129,0,0,-129,518.01376,518.819)" fill="#4b78d8"/>         <use xlink:href="#font_4_7" transform="matrix(129,0,0,-129,688.0357,517.7225)" fill="#4b78d8"/>         <use xlink:href="#font_4_5" transform="matrix(129,0,0,-129,808.3282,517.7225)" fill="#4b78d8"/>         <use xlink:href="#font_4_8" transform="matrix(129,0,0,-129,923.3317,518.948)" fill="#4b78d8"/>         <use xlink:href="#font_4_6" transform="matrix(129,0,0,-129,1044.7852,518.948)" fill="#4b78d8"/>         <use xlink:href="#font_4_7" transform="matrix(129,0,0,-129,1141.8577,517.7225)" fill="#4b78d8"/>         <use xlink:href="#font_4_4" transform="matrix(129,0,0,-129,1324.2637,517.7225)" fill="#4b78d8"/>         <use xlink:href="#font_4_1" transform="matrix(129,0,0,-129,1420.3687,517.7225)" fill="#4b78d8"/>         <use xlink:href="#font_4_2" transform="matrix(129,0,0,-129,1551.6907,518.819)" fill="#4b78d8"/>       </g>       <clipPath id="cp5">         <path transform="matrix(1,0,0,-1,0,1080)" d="m 968.1669,501.5627 h 660.7224 v 4 H 968.1669 Z"/>       </clipPath>       <g clip-path="url(#cp5)">         <path transform="translate(969.1669,576.43728)" stroke-width="2" stroke-linecap="butt" stroke-miterlimit="4" stroke-linejoin="miter" fill="none" stroke="#6d94c4" d="M 0,0 H 658.7224"/>       </g>       <clipPath id="cp6">         <path transform="matrix(1,0,0,-1,0,1080)" d="m 266.5552,502.2602 h 661.4524 v 4 H 266.5552 Z"/>       </clipPath>       <g clip-path="url(#cp6)">         <clipPath id="cp7">           <path transform="matrix(1,0,0,-1,0,1080)" d="M 0,0 H 1920 V 1080 H 0 Z"/>         </clipPath>         <g clip-path="url(#cp7)">           <path transform="matrix(1,0,0,-1,267.5552,575.7398)" stroke-width="2" stroke-linecap="butt" stroke-miterlimit="4" stroke-linejoin="miter" fill="none" stroke="#6d94c4" d="M 0,0 H 659.4524"/>         </g>         <g data-name="P"/>       </g>       <clipPath id="cp8">         <path transform="matrix(1,0,0,-1,0,1080)" d="m 924.5037,480.4789 h 46.4373 v 46.43726 h -46.4373 z"/>       </clipPath>       <g clip-path="url(#cp8)">         <path transform="translate(926.5037,555.0839)" stroke-width="2" stroke-linecap="butt" stroke-miterlimit="4" stroke-linejoin="miter" fill="none" stroke="#6d94c4" d="m 36.22245,6.21479 c 8.28639,8.28639 8.28639,21.72127 0,30.00766 -8.28639,8.28639 -21.72127,8.28639 -30.00766,0 -8.286387,-8.28639 -8.286387,-21.72127 0,-30.00766 8.28639,-8.286387 21.72127,-8.286387 30.00766,0 z m 0,0"/>       </g>     </g>   </g> </svg>